<?xml version="1.0" standalone="no"?>
<!DOCTYPE svg PUBLIC "-//W3C//DTD SVG 20010904//EN"
 "http://www.w3.org/TR/2001/REC-SVG-20010904/DTD/svg10.dtd">
<svg version="1.0" xmlns="http://www.w3.org/2000/svg"
 width="310.000000pt" height="310.000000pt" viewBox="0 0 310.000000 310.000000"
 preserveAspectRatio="xMidYMid meet">
<metadata>
Created by potrace 1.14, written by Peter Selinger 2001-2017
</metadata>
<g transform="translate(0.000000,310.000000) scale(0.100000,-0.100000)"
fill="#000000" stroke="none">
<path d="M1890 2746 c-19 -7 -39 -14 -45 -16 -5 -1 -28 -11 -50 -23 -27 -14
-64 -21 -115 -23 -84 -4 -172 -12 -210 -19 -14 -3 -36 -7 -50 -10 -153 -29
-341 -116 -476 -221 -52 -40 -162 -149 -205 -204 -162 -205 -260 -483 -260
-735 0 -49 10 -168 17 -195 3 -14 7 -38 9 -55 2 -16 15 -64 30 -105 14 -41 29
-84 33 -95 12 -43 106 -205 147 -254 11 -14 43 -49 71 -78 28 -29 49 -55 46
-58 -3 -3 -1 -5 4 -5 6 0 19 -8 30 -18 32 -30 154 -113 154 -105 0 5 4 3 8 -2
11 -17 192 -100 192 -89 0 3 10 -1 22 -7 23 -13 128 -36 198 -45 25 -3 59 -7
75 -9 50 -8 310 -3 310 5 0 0 16 3 35 5 71 9 100 14 108 19 5 3 22 8 38 11 16
3 34 7 39 9 6 2 24 6 40 11 45 12 239 105 247 118 4 7 8 8 8 4 0 -18 180 119
180 137 0 4 -19 -6 -42 -21 -58 -38 -132 -73 -149 -69 -3 0 -12 -4 -20 -11
-18 -15 -197 -55 -210 -48 -5 4 -9 2 -9 -4 0 -10 -364 -9 -415 3 -16 3 -43 8
-60 11 -42 7 -105 21 -115 26 -3 1 -9 3 -15 4 -5 1 -23 7 -38 13 -16 7 -32 12
-37 12 -4 0 -20 7 -36 14 -15 8 -31 13 -36 10 -4 -3 -8 -2 -8 3 0 4 -20 16
-44 26 -77 32 -178 106 -258 189 -43 44 -78 86 -78 93 0 7 -4 15 -8 17 -16 6
-72 136 -93 215 -41 151 -29 348 28 493 28 72 91 180 104 180 5 0 9 5 9 12 0
10 77 88 135 136 32 27 162 91 216 107 87 24 98 26 194 29 96 3 161 -10 223
-46 150 -86 164 -90 227 -85 36 3 95 20 146 40 46 20 127 49 179 66 180 59
223 89 248 171 2 8 5 53 6 99 1 83 1 84 -34 120 -22 22 -91 64 -185 111 -83
41 -153 79 -156 83 -3 5 -8 8 -10 7 -2 0 -31 11 -64 26 -71 32 -172 41 -225
20z m251 -92 c21 -19 30 -59 16 -73 -17 -17 -52 -13 -80 9 -30 24 -44 69 -25
82 17 11 67 2 89 -18z m-32 -483 c8 -5 16 -16 17 -24 2 -18 -31 -57 -49 -58
-7 0 -22 -2 -35 -3 -34 -4 -56 16 -49 45 10 38 81 62 116 40z"/>
</g>
</svg>
